<svg width="20" height="16" viewBox="0 0 20 16" fill="none" xmlns="http://www.w3.org/2000/svg">
<path d="M1.60002 0.200012C0.937288 0.200012 0.400024 0.737276 0.400024 1.40001C0.400024 2.06275 0.937288 2.60001 1.60002 2.60001H3.06309L3.42976 4.0667C3.43361 4.08366 3.43782 4.10048 3.44238 4.11716L5.07106 10.6319L3.99996 11.703C2.48805 13.2149 3.55884 15.8 5.69702 15.8H16C16.6627 15.8 17.2 15.2628 17.2 14.6C17.2 13.9373 16.6627 13.4 16 13.4H5.69703L6.89702 12.2H14.8C15.2546 12.2 15.67 11.9432 15.8733 11.5367L19.4733 4.33666C19.6593 3.96469 19.6395 3.52292 19.4209 3.16914C19.2021 2.81535 18.8159 2.60001 18.4 2.60001H5.53696L5.16419 1.10896C5.03064 0.574772 4.55067 0.200012 4.00002 0.200012H1.60002Z" fill="#667085"/>
</svg>