<?xml version="1.0" standalone="no"?>
<!DOCTYPE svg PUBLIC "-//W3C//DTD SVG 20010904//EN"
 "http://www.w3.org/TR/2001/REC-SVG-20010904/DTD/svg10.dtd">
<svg version="1.0" xmlns="http://www.w3.org/2000/svg"
 width="700.000000pt" height="700.000000pt" viewBox="0 0 700.000000 700.000000"
 preserveAspectRatio="xMidYMid meet">
<metadata>
Created by potrace 1.14, written by Peter Selinger 2001-2017
</metadata>
<g transform="translate(0.000000,700.000000) scale(0.100000,-0.100000)"
fill="#000000" stroke="none">
<path d="M1995 6629 c-209 -7 -319 -28 -490 -92 -99 -37 -234 -106 -306 -158
-15 -10 -30 -19 -33 -19 -3 0 -14 -8 -24 -17 -10 -10 -41 -37 -68 -59 -42 -36
-92 -85 -202 -201 -12 -13 -22 -26 -22 -28 0 -2 -20 -32 -44 -67 -102 -147
-179 -327 -220 -514 -14 -65 -20 -101 -31 -204 -6 -48 -6 -3160 -1 -3187 3
-11 7 -43 11 -70 12 -89 27 -158 52 -235 13 -43 21 -83 17 -89 -4 -7 -3 -9 3
-6 7 5 33 -45 38 -73 2 -9 64 -123 96 -176 10 -17 17 -34 14 -37 -3 -4 -2 -5
1 -3 3 3 33 -31 66 -76 33 -44 75 -96 94 -114 19 -19 34 -39 34 -44 0 -6 5
-10 10 -10 14 0 76 -60 73 -71 -2 -5 1 -8 5 -6 14 3 162 -105 156 -114 -3 -5
1 -6 9 -4 7 3 29 -5 48 -17 19 -13 62 -36 96 -53 34 -16 60 -32 58 -35 -2 -3
7 -6 18 -7 12 0 49 -11 82 -23 59 -22 105 -36 155 -46 14 -2 32 -7 40 -11 8
-3 25 -5 38 -4 12 1 22 -1 22 -6 0 -12 17 -13 1055 -17 534 -2 972 -5 975 -6
3 -1 10 -1 15 0 6 1 296 4 645 5 429 1 658 6 705 14 103 17 225 49 296 76 34
14 64 23 67 20 2 -2 11 3 19 11 9 8 22 13 30 10 8 -3 12 -2 9 2 -2 4 30 25 72
47 42 22 82 43 87 47 6 4 46 34 91 67 81 59 210 182 260 246 14 19 31 32 37
28 5 -3 7 -1 3 5 -3 6 13 39 38 74 124 180 220 430 241 633 4 33 8 71 11 85 5
33 5 3124 -1 3175 -17 152 -56 326 -90 402 -8 17 -15 34 -15 37 0 16 -91 189
-133 253 -249 381 -679 634 -1117 659 -144 8 -2872 10 -3095 3z"/>
<path d="M3956 673 c-6 -14 -5 -15 5 -6 7 7 10 15 7 18 -3 3 -9 -2 -12 -12z"/>
<path d="M4276 673 c-6 -14 -5 -15 5 -6 7 7 10 15 7 18 -3 3 -9 -2 -12 -12z"/>
<path d="M4474 609 c-3 -6 -2 -15 3 -20 5 -5 9 -1 9 11 0 23 -2 24 -12 9z"/>
</g>
</svg>
